<svg height="512pt" viewBox="0 0 512 511" width="512pt" xmlns="http://www.w3.org/2000/svg"><g fill="#96d1f3"><path d="m504.5 504.992188h-101.480469v-113.757813h101.480469zm0 0"/><path d="m372.660156 504.992188h-101.480468v-204.476563h101.480468zm0 0"/><path d="m240.820312 504.992188h-101.480468v-295.191407h101.480468zm0 0"/><path d="m108.980469 504.992188h-101.480469v-385.90625h101.480469zm0 0"/></g><path d="m442.789062 190.382812-311.140624-179.636718-27.363282 47.394531 311.140625 179.636719-15.308593 26.515625 95.070312-12.058594-37.089844-88.367187zm0 0" fill="#d15573"/><path d="m403.019531 391.234375h30v113.757813h-30zm0 0" fill="#3ca6e6"/><path d="m271.179688 300.515625h30v204.476563h-30zm0 0" fill="#3ca6e6"/><path d="m139.339844 209.800781h30v295.191407h-30zm0 0" fill="#3ca6e6"/><path d="m7.5 119.085938h30v385.90625h-30zm0 0" fill="#3ca6e6"/><path d="m432.488281 260.1875 12.9375-22.410156-311.140625-179.636719 19.863282-34.40625-22.5-12.988281-27.363282 47.394531 311.140625 179.636719-15.308593 26.515625zm0 0" fill="#c21d44"/><path d="m210.078125 364.898438h-15v-15h15zm-25 0h-15v-15h15zm0 0" fill="#fff"/><path d="m395.519531 383.734375v128.757813h116.480469v-128.757813zm101.480469 113.757813h-86.480469v-98.757813h86.480469zm0 0"/><path d="m263.679688 428.347656h15v-120.328125h86.480468v189.472657h-86.480468v-49.144532h-15v64.144532h116.480468v-219.472657h-116.480468zm0 0"/><path d="m131.839844 512.492188h116.480468v-310.191407h-116.480468zm15-295.191407h86.480468v280.191407h-86.480468zm0 0"/><path d="m0 512.492188h116.480469v-302.691407h-15v287.691407h-86.480469v-370.90625h86.480469v63.214843h15v-78.214843h-116.480469zm0 0"/><path d="m505.925781 258.429688-46.761719-111.40625-19.117187 33.113281-311.140625-179.636719-34.867188 60.386719 311.140626 179.636719-19.117188 33.113281zm-391.394531-203.03125 19.863281-34.40625 311.140625 179.636718 11.5-19.917968 27.417969 65.324218-70.28125 8.917969 11.5-19.917969zm0 0"/></svg>